<svg xmlns="http://www.w3.org/2000/svg" viewBox="0 0 32 32">
  <path d="M6 4c0-1 .8-2 2-2h4c1 0 2 .5 2.5 1L16 4.5 17.5 3c.5-.5 1.5-1 2.5-1h4c1.2 0 2 1 2 2v22c0 1-.8 2-2 2h-5l-3 2-3-2H8c-1.2 0-2-1-2-2V4z" fill="#d4a0a0" stroke="#b07070" stroke-width="1"/>
  <line x1="16" y1="5" x2="16" y2="28" stroke="#b07070" stroke-width="1"/>
  <line x1="9" y1="9" x2="14" y2="9" stroke="#b07070" stroke-width="0.8" opacity="0.5"/>
  <line x1="9" y1="12" x2="14" y2="12" stroke="#b07070" stroke-width="0.8" opacity="0.5"/>
  <line x1="9" y1="15" x2="13" y2="15" stroke="#b07070" stroke-width="0.8" opacity="0.5"/>
  <line x1="18" y1="9" x2="23" y2="9" stroke="#b07070" stroke-width="0.8" opacity="0.5"/>
  <line x1="18" y1="12" x2="23" y2="12" stroke="#b07070" stroke-width="0.8" opacity="0.5"/>
  <line x1="18" y1="15" x2="22" y2="15" stroke="#b07070" stroke-width="0.8" opacity="0.5"/>
</svg>